{"title":"12 Monkeys S02E10 Fatherland 1080P WEB-DL DD5 1 H 264","uid":15025075,"size":1787935766,"categoryP":"video","categoryS":"hd___tv_shows","magnet":"?xt=urn:btih:3eb69b5795b47610b204bd5d0ba0caee2c70cdd4&amp;dn=12+Monkeys+S02E10+Fatherland+1080P+WEB-DL+DD5+1+H+264&amp;tr=udp%3A%2F%2Ftracker.leechers-paradise.org%3A6969&amp;tr=udp%3A%2F%2Fzer0day.ch%3A1337&amp;tr=udp%3A%2F%2Fopen.demonii.com%3A1337&amp;tr=udp%3A%2F%2Ftracker.coppersurfer.tk%3A6969&amp;tr=udp%3A%2F%2Fexodus.desync.com%3A6969","seeders":2,"leechers":0,"uploader":"jmanwf","files":1,"time":1466512847,"description":"Description\r\nCole’s loyalty is tested when Ramse and Railly go rogue and embark on an unsanctioned mission into 1961 East Berlin in the hopes of finding an unscrupulous German doctor who knows the location of The Witness so they can kill him.\r\n\r\n\r\nVideo\r\nID : 2\r\nFormat : AVC\r\nFormat/Info : Advanced Video Codec\r\nFormat profile :   \r\nFormat settings, CABAC : Yes\r\nFormat settings, ReFrames : 4 frames\r\nCodec ID : V_MPEG4/ISO/AVC\r\nDuration : 42mn 59s\r\nBit rate : 5 031 Kbps\r\nWidth : 1 920 pixels\r\nHeight : 1 080 pixels\r\nDisplay aspect ratio : 16:9\r\nFrame rate mode : Constant\r\nFrame rate : 23.976 (24000/1001) fps\r\nColor space : YUV\r\nChroma subsampling : 4:2:0\r\nBit depth : 8 bits\r\nScan type : Progressive\r\nBits/(Pixel*Frame) : 0.101\r\nStream size : 1.51 GiB (91%)\r\nLanguage : English\r\nDefault : Yes\r\nForced : No\r\nColor range : Limited\r\nColor primaries : BT.709\r\nTransfer characteristics : BT.709\r\nMatrix coefficients : BT.709\r\n\r\nAudio #1\r\nID : 1\r\nFormat : AAC\r\nFormat/Info : Advanced Audio Codec\r\nFormat profile : LC\r\nCodec ID : A_AAC\r\nDuration : 42mn 59s\r\nBit rate : 126 Kbps\r\nChannel(s) : 2 channels\r\nChannel positions : Front: L R\r\nSampling rate : 48.0 KHz\r\nFrame rate : 46.875 fps (1024 spf)\r\nCompression mode : Lossy\r\nStream size : 38.7 MiB (2%)\r\nLanguage : English\r\nDefault : Yes\r\nForced : No\r\n\r\nAudio #2\r\nID : 3\r\nFormat : AC-3\r\nFormat/Info : Audio Coding 3\r\nMode extension : CM (complete main)\r\nFormat settings, Endianness : Big\r\nCodec ID : A_AC3\r\nDuration : 42mn 59s\r\nBit rate mode : Constant\r\nBit rate : 384 Kbps\r\nChannel(s) : 6 channels\r\nChannel positions : Front: L C R, Side: L R, LFE\r\nSampling rate : 48.0 KHz\r\nFrame rate : 31.250 fps (1536 spf)\r\nCompression mode : Lossy\r\nStream size : 118 MiB (7%)\r\nLanguage : English\r\nDefault : No\r\nForced : No\r\n\r\nText\r\nID : 4\r\nFormat : UTF-8\r\nCodec ID : S_TEXT/UTF8\r\nCodec ID/Info : UTF-8 Plain Text\r\nDuration : 42mn 34s\r\nBit rate : 95 bps\r\nCount of elements : 895\r\nStream size : 29.8 KiB (0%)\r\nLanguage : English\r\nDefault : Yes\r\nForced : No","torrent":{"xt":"urn:btih:3eb69b5795b47610b204bd5d0ba0caee2c70cdd4","amp;dn":"12+Monkeys+S02E10+Fatherland+1080P+WEB-DL+DD5+1+H+264","amp;tr":["udp%3A%2F%2Ftracker.leechers-paradise.org%3A6969","udp%3A%2F%2Fzer0day.ch%3A1337","udp%3A%2F%2Fopen.demonii.com%3A1337","udp%3A%2F%2Ftracker.coppersurfer.tk%3A6969","udp%3A%2F%2Fexodus.desync.com%3A6969"],"infoHash":"3eb69b5795b47610b204bd5d0ba0caee2c70cdd4","infoHashBuffer":{"type":"Buffer","data":[62,182,155,87,149,180,118,16,178,4,189,93,11,160,202,238,44,112,205,212]},"announce":[],"urlList":[]}}